<?xml version="1.0" encoding="UTF-8"?>
<svg id="Layer_2" data-name="Layer 2" xmlns="http://www.w3.org/2000/svg" xmlns:xlink="http://www.w3.org/1999/xlink" viewBox="0 0 118.46 49.59">
  <defs>
    <style>
      .cls-1 {
        fill: #231f20;
      }

      .cls-2 {
        fill: none;
      }

      .cls-3 {
        clip-path: url(#clippath);
      }
    </style>
    <clipPath id="clippath">
      <rect class="cls-2" width="118.46" height="49.59"/>
    </clipPath>
  </defs>
  <g id="Layer_1-2" data-name="Layer 1">
    <g class="cls-3">
      <path class="cls-1" d="M117.78,21.67l.68,4.07h-1.37l-.25-1.75-.08-.68-.13.63-.48,1.8h-1.22l-.48-1.84-.12-.59-.03.52-.28,1.91h-1.24l.66-4.07h1.57l.49,1.79.12.6.09-.57.5-1.82h1.57ZM92.96,44.02c-.16,2.96,24.47-1.54,22.1-2.2-2.94-.82-21.96-.73-22.1,2.2M110.42,25.74h1.32v-2.96h.94v-1.12h-3.22v1.12h.97v2.96ZM106.08,29.51c-1.43-.78-8.82-.17-8.97,1.33-.17,1.74,11.11-.16,8.97-1.33M97.54,37.42c1.22,1.44,10.67-1.12,7.89-2.41-1.62-.76-8.94,1.16-7.89,2.41M92.3,30.83c-3.06-.63-.19,9.96-5.05,11.65-8.2,2.82-4.19-10.64-8.09-9.9-3.21.61,2.07,10.52,3.74,11.34,7.89,3.93,15.21-11.88,9.4-13.09M66.65,31.58c-6.4,1.26,1.66-15.49-2.81-15.7-3.76-.2-1.65,9.95-1.67,11.55-.08,5.77-5.76,4.48-5.54,6.91,4.76,1.01,5.17-.8,5.2,5.17.01,1.02-1.6,8.86.92,8.47,7.56-1.15-4.39-16.39,7.45-14.08,2.84,3.72,1.49,6.91.86,10.78-.37,2.36,2.88,3.59,2.78,1.06-.31-5.58,2.44-16.02-7.18-14.16M69.19,25.41c1.2.25,2.25-1.73,1.31-2.64-1.36-1.32-3.17,2.27-1.31,2.64M44.56,34.56c-3.71.17-2.52,6.87-.19,8.71,2.86,2.24,16.28.7,14.21-3.64-2.68-5.62-15.68,9.44-14.02-5.07M36.03,38.97c.77,1.52,1.54,14.11-2.63,9.68-2.77-2.97-.72-8.09-2.19-11.9-3.63.94-7.2,2.03-10.73,3.31-.32,1.6-1.05,3-2.19,4.18-2.74-1.21,8.94-30.08,12.47-29.69,3.49.35,3.08,14.22,3.5,17.58,5.42-1.29,10.15-4.27,15.34-6.14,2.24,4.75-6.06,4.87-9.85,6.59-3.52,1.6-5.68,2.51-3.72,6.38M30.1,29.39c-.04-.57.24-6.92-2.18-6.92-1.91,4.53-4.36,8.79-5.47,13.63,6.25.17,7.95-1.07,7.64-6.71"/>
      <path class="cls-1" d="M20.72,2.7c-.87.34-1.44,1.11-1.49,1.98-.04.93.55,1.8,1.49,2.17,1.65.11,3-.58,3.21-1.37.25-.93-.95-2.49-3.21-2.78"/>
      <path class="cls-1" d="M5.4,8.18c.47,2.71,3.83,1.01,3.83,1.01,1.11-.84.82-2.13.44-2.79-.71-1.21-4.96-2.27-4.27,1.79"/>
      <path class="cls-1" d="M16.75,7.12l.47,10.8,2.04,2.16c.69-1.21,1.38-2.46,2.07-3.73.35-.65.7-1.31,1.03-1.95-1.15-2.62-2.29-5.24-3.43-7.86l-2.18.58Z"/>
      <path class="cls-1" d="M9.62.64C7.56-.65-.33-.62.01,6.97s7.08,7.63,7.08,7.63c13.86-.01,9.17-12.93,2.53-13.97M10.17,11.32s-2.84.92-5.51-.59c-3.4-1.93-2.72-6.75.12-7.81,2.84-1.07,6.11.74,6.8,2.54.67,1.79,1.19,5.38-1.41,5.86"/>
    </g>
  </g>
</svg>