<?xml version="1.0" encoding="UTF-8"?><svg id="Layer_1" xmlns="http://www.w3.org/2000/svg" viewBox="0 0 71.96 64.29"><defs><style>.cls-1{fill:#231f20;}.cls-2{fill:#fff;}.cls-3{fill:#c7c8ca;}.cls-4{fill:#ffc21e;}</style></defs><path class="cls-1" d="M55.71,25.14l.91,4.61c-.17.56-.36,1.1-.53,1.64-.08.26-.16.52-.22.79-.03.13-.07.27-.1.4h0c-.13.11-.13.26-.16.41-.37,1.85-.66,4.11-.54,5.99.02.43.16.85.2,1.29h-1.48c0-.06-.01-.11-.02-.16,0-.06-.01-.13-.02-.18-.01-.05-.02-.1-.03-.15-.03-.08-.06-.14-.1-.14,0,0-.01.01-.02.03-.02.02-.03.06-.06.09,0,.01-.02.03-.03.06-.06.1-.11.25-.16.38-.01.02-.02.04-.03.06h-4.05c.07-1.77.48-3.59,1.18-5.22.1-.22.25-.58.38-.77.06-.08,0-.15.2-.11,0,.26.2,1.94.4,1.94.8-1.52,1.77-2.95,2.44-4.53.88-2.04,1.34-4.23,1.66-6.42l.2-.03Z"/><path class="cls-3" d="M55.78,32.6s0,.06-.02.09c0-.03,0-.06.01-.09h0Z"/><path class="cls-3" d="M55.78,32.6s-.01.06-.01.09c0,.03-.01.06-.01.08-.01.06-.03.13-.03.18,0,.02,0,.03-.01.06-.04.23-.09.45-.13.7-.09.58-.19,1.19-.25,1.8-.08.6-.13,1.19-.16,1.72-.01.3,0,.59.01.87.02.44.07.86.1,1.3.03.29.06.59.06.89h-.07c-.03-.44-.17-.86-.2-1.29-.12-1.88.17-4.14.54-5.99.03-.15.03-.3.16-.4Z"/><path class="cls-1" d="M55.29,22.99l.42,2.15-.2.03c-.14-.03-.15.03-.22.08-.29.22-1.06,1.39-1.41,1.77-1.08,1.17-3.16,3.19-4.59,1.41-1.14-1.43-1.23-3.13-3.01-4.31-2.26-1.52-4.97-.97-7.46-.45.1-2.85-.59-5.6-1.91-8.11-.12-.23-.26-.54-.47-.7h0c-.03-.07-.06-.13-.1-.19,0-.02-.01-.03-.03-.06-.04-.08-.1-.17-.15-.25-.03-.05-.06-.09-.08-.13,0-.02-.02-.03-.03-.05-.08-.11-.15-.22-.23-.32-.02-.03-.04-.06-.06-.09,0,0-.01-.01-.01-.02-.03-.04-.07-.09-.11-.14,0,0-.01-.02-.02-.03-.03-.03-.05-.06-.07-.09h0s-.03-.05-.06-.08c0,0-.02-.02-.03-.03-.03-.04-.07-.08-.11-.13,0,0,0-.01-.01-.02,0-.01-.02-.03-.03-.05h0c-.11-.15-.23-.3-.35-.46-.18-.24-.37-.49-.56-.73-.06-.08-.12-.15-.17-.22,0,0-.01,0,0-.01-.07-.08-.13-.15-.18-.22-.03-.03-.06-.07-.09-.1l-.08-.1h0s-.04-.06-.07-.08c-.02-.02-.04-.05-.06-.07l-.28-.29c-.08-.07-.15-.14-.22-.21-.36-.33-.73-.65-1.1-.98-.07-.06-.14-.12-.21-.18-.22-.2-.44-.4-.63-.61-.08-.08-.15-.15-.22-.24,0-.01-.02-.02-.03-.03-.08-.08-.15-.17-.22-.26-.04-.06-.08-.11-.12-.17-.07-.09-.13-.18-.17-.28-.01,0-.02-.01-.02-.03-.01-.02-.03-.04-.03-.07-.05-.08-.1-.17-.13-.26l-.02-.06-.02-.06c-.03-.08-.06-.15-.08-.22-.03-.08-.04-.15-.06-.23-.03-.15-.04-.3-.05-.46v-.09s0-.07,0-.11v-.03c0-.15.02-.3.06-.46.04-.23.12-.46.22-.71.11-.28.26-.54.43-.79l.99.16c-.17.23-.3.5-.38.78-.01.02-.02.04-.02.06-.01.02-.02.05-.02.07-.02.06-.03.13-.04.2-.02.06-.03.13-.03.2-.02.3,0,.59.1.86,0,.03.02.05.03.08.03.08.06.15.11.22.04.07.09.14.15.2.01.02.03.04.06.06h0s0,.01.01.01c0,.01.01.01.02.01.04.03.08.06.12.06.03.01.05.01.08,0,.05,0,.09-.02.14-.06.09-.06.18-.18.28-.3.02-.03.04-.05.06-.08.06-.07.11-.14.17-.2.28-.24.6-.46.94-.65.1-.06.22-.12.33-.17.08-.05.16-.08.24-.11.06-.03.11-.06.17-.08.13-.05.26-.1.39-.14.08-.03.16-.06.24-.08.03-.01.06-.02.1-.03.04-.01.08-.03.12-.03.15-.04.29-.07.44-.1.08-.01.16-.03.24-.03,1.07-.16,2.16-.05,3.05.45.28.15.55.36.78.61.02.01.04.03.05.06.02.01.03.03.05.06.02.02.05.05.07.08.17.2.3.42.38.65.03.08.06.17.08.26-.61.15-1.23.32-1.85.52s-1.23.41-1.8.65c-.03,0-.06.02-.11.04-.05.03-.1.06-.17.08-.07.03-.15.07-.23.1-.26.13-.56.27-.73.38-.03.01-.05.03-.06.04-.05.03-.08.06-.08.08.61.39,1.16.81,1.65,1.31.24.24.47.5.68.78s.41.58.59.89c.02.03.04.07.06.1.06.1.11.22.17.33.06.13.12.26.18.39.03.09.08.19.13.28.05.1.1.22.16.33,0,.02.01.03.03.05.02.03.04.08.06.11.02.06.06.1.08.15.06.16.11.34.18.55.01.03.02.05.02.08.08.29.19.61.3.94.04.13.08.25.12.38.07.19.13.37.2.56.06.19.13.38.2.56.1.29.22.56.33.81.03.07.06.13.09.19.09.19.18.36.28.5.02.03.04.07.07.1.04.06.08.13.13.18.07.09.14.17.21.23,1.23,1.13,3.16.29,4.61.95,1.02.46.65.88,1.92.2.14-.07.27-.15.4-.24.07-.05.13-.09.2-.15.11-.07.22-.15.32-.24.09-.07.18-.15.27-.24.04-.03.08-.07.13-.12.27-.25.52-.54.76-.83.11-.15.22-.3.33-.45.08-.11.16-.22.23-.33l.06-.1s.06-.1.08-.14c.07-.12.13-.23.2-.35h0c.08-.16.15-.29.22-.41.27-.52.34-.8.22-1.55,0,0,0-.02,0-.03-.15-.95-.62-2.15-1.21-2.99-.08-.12-.17-.23-.26-.33h0s0-.01-.01-.02c-.08-.13-.18-.29-.29-.45-.02-.03-.05-.08-.08-.12-.24-.36-.52-.75-.75-.96s-.87-.29-1.19-.31c-.09,0-.17-.01-.26-.01-.1,0-.22-.01-.32,0-.79-.03-1.58.03-2.36.08-.22.01-.45.03-.67.03-.1,0-.42.06-.4-.09.33-.1.65-.2.98-.29.81-.22,1.62-.39,2.44-.53.9-.17,1.8-.3,2.71-.42l.2.15c.03.19.03.4.02.61-.01.37-.06.75,0,1.05,0,.03.01.04.02.06s.01.03.02.05c.01.03.03.04.06.06,0,0,.01,0,.02.01s.02.01.03.01c.01,0,.02.01.03.02.43.8.93,1.5,1.32,2.35.22.51.38,1.21.62,1.67.16.29,1.32,1.54,1.33,1.66h0c0,.47-1-.63-1.15-.48-.58,2.75-1.86,5.26-3.84,7.24-.08.18.7,1.38.86,1.61,2.09,2.91,4.32,1.28,5.9-1.04.08-.13.28-.54.38-.74ZM39.04,7.06s0-.08-.04-.12h0s0,0,0,0c-.03-.03-.06-.05-.1-.08-.01,0-.03-.02-.05-.03-.04-.03-.1-.06-.15-.08-.05-.02-.1-.04-.15-.06-.01-.01-.03-.02-.06-.03l-.06-.02c-.08-.03-.16-.06-.24-.09-.04-.01-.08-.03-.11-.04s-.07-.02-.1-.03c-.06-.02-.13-.03-.17-.05s-.08-.03-.09-.03c-.06,0-.1-.01-.16-.01-.03,0-.06,0-.08,0-.03,0-.06,0-.08,0h-.13c-.06,0-.13,0-.19,0-.36,0-.74.02-1.02.09-.22.05-.5.17-.78.34-.08.05-.17.1-.25.16,0,0,0,0,0,0-.1.07-.2.15-.29.22-.1.08-.18.17-.26.26-.07.08-.14.18-.19.27-.18.34-.18.7.19,1.02.2-.13.39-.25.59-.37.33-.19.66-.36,1.01-.52.42-.19.85-.35,1.29-.47.34-.1.7-.18,1.05-.24.17-.02.34-.05.52-.06.03,0,.06,0,.09,0,0-.01.02-.02.03-.03Z"/><path class="cls-3" d="M53.77,40.12s.01.1.02.16h-.47l.02-.06c.05-.13.1-.28.16-.38.01-.03.03-.05.03-.06.02-.03.03-.07.06-.09,0-.01.01-.02.02-.03.03,0,.07.06.1.14.01.04.02.1.03.15,0,.06.02.12.02.18Z"/><path class="cls-1" d="M39.09,3.29l-.44.17-.08-.09c-.15-.06-.29-.11-.45-.15l-.17-.04c-.62-.12-1.27-.08-1.91-.07-.15,0-.39-.06-.48.09-.08,0-.15.01-.24.03s-.17.03-.25.05c-.4.08-.81.22-1.15.36-.1.05-.22.11-.34.2-.04.02-.08.05-.13.08-.26.18-.52.38-.68.44h0s-.06.01-.08,0c-.07-.03-.08-.14-.04-.17,0,0,.02-.01.03-.02.04-.03.13-.06.21-.1.03-.01.06-.03.09-.06.03-.02.06-.05.07-.08,0,0,0,0,0-.01,0,0,.01-.01.01-.02,0-.01.01-.03.01-.06h0s0-.02,0-.03c0-.01,0-.03,0-.06h-.03c-.06,0-.13.01-.19.03s-.12.03-.17.05h0s-.1.03-.14.06c0,0-.01,0-.02,0,0,0,0,0,0,0-.03,0-.05.02-.07.03-.06.02-.13.06-.18.1-.03.02-.08.05-.11.08-.03.03-.07.06-.1.1-.02.01-.04.03-.06.06-.08.07-.15.15-.21.24l-.99-.16s.03-.04.03-.06c.03-.04.06-.08.08-.11.06-.09.13-.18.2-.26.04-.05.08-.09.12-.14,0,0,0-.01.01-.02.13-.16.26-.31.4-.47l.21-.25c-.4.03-.8.09-1.2.17-.01,0-.03,0-.04,0-.18.02-.37.06-.55.1-1.66.32-3.32.86-4.84,1.55-.29.13-.59.27-.87.42-.02,0-.05.02-.08.04-.16.08-.45.24-.77.43-.06.03-.13.08-.2.11-.2.12-.39.24-.57.35-.12.08-.24.15-.33.21-.1.06-.18.13-.24.17-.03.02-.06.04-.07.06-.02,0-.03.02-.04.03h0s0,0,0,0c0,.01,0,.02,0,.03-.03.11.13.1.19.13.22.1.42.2.63.29.14.06.29.13.42.2h0s.01,0,.02.01c1.22.87,2.35,1.84,3.11,3.16.79,1.38,1.23,3.18,1.36,4.74.05.56-.08,1.43.03,1.91.08.32.73,1.29.93,1.71,1.54,3.29,2.22,6.96,2.32,10.58,0,.33.01.72-.02,1.04,0,.1-.03.42-.16.41-.17-4.3-1.8-8.38-4.03-12-.17-.27-.85-1.11-.89-1.3-.17-.66.03-2.03-.02-2.8-.12-1.46-.5-3.18-1.33-4.37-.39-.57-.72-1-1.35-1.34-2.35-1.25-5.75.79-8.05,1.52-.1.16.13,1.81.14,2.16.12,3.25-.48,6.76-1.59,9.81-.31.84-.67,1.76-1.12,2.55l-.95-4.78c1.18-3.43,1.02-7.15.22-10.66.02-.2,1.29-1.25,1.55-1.46C19.79,3.09,28.04-.25,36.29,1.73c.36.09,1.13.26,1.43.42.42.26.83.98,1.37,1.14Z"/><path class="cls-4" d="M39.04,7.06s-.02.01-.03.03c-.03,0-.06,0-.09,0,.03,0,.06-.01.09-.01,0,0,.02-.01.03-.02Z"/><path class="cls-4" d="M38.84,6.83s-.03-.02-.06-.03c-.03-.01-.06-.03-.1-.06.06.03.11.06.15.08Z"/><path class="cls-3" d="M38.13,3.22c.15.04.3.09.45.15-.98-.15-2-.26-3-.17.09-.15.33-.09.48-.09.63,0,1.29-.05,1.91.07l.17.04Z"/><path class="cls-1" d="M37.12,40.28h-1.46c-.31-.59-.5-1.23-.7-1.87-.01-.1-.03-.2-.05-.31-.03-.2-.08-.4-.13-.61h0c-.05-.21-.1-.41-.15-.61-.08-.31-.15-.61-.2-.91,0-.05-.03-.23-.02-.35,0-.05.01-.08.03-.1s.05-.01.09,0c.01.01.03.03.06.05h0s0,0,0,0c.65,1.64,1.55,3.2,2.51,4.69Z"/><path class="cls-3" d="M36.6,15.29s0,.02,0,.03c0,.02,0,.03-.01.04s-.04-.01-.1-.07c-.06-.14-.14-.28-.24-.42-.15-.22-.34-.42-.5-.64-.13-.15-.24-.31-.31-.47-.02-.05-.04-.1-.06-.15h0c0-.06.05-.22-.03-.37.04.05.08.09.11.13,0,.01.02.03.03.03.02.03.04.05.06.08h0s.04.06.07.09c0,.01.02.03.02.03.04.05.08.1.11.14,0,0,0,.01.01.02.02.03.04.06.06.09.08.1.15.21.23.32,0,.01.02.03.03.05.03.04.06.08.08.13s.06.09.08.14c.02.03.05.08.07.11.01.02.02.03.03.06.03.06.06.12.09.18h0s.03.07.05.13c.02.04.03.1.06.15,0,.01,0,.03.01.04,0,0,0,.01,0,.02h0s0,.01,0,.02c0,.01,0,.02,0,.03,0,0,0,0,0,0h0v.03s0,.01,0,.01Z"/><path class="cls-3" d="M36.59,15.24s0,.01,0,.01h0s0,0,0-.01Z"/><path class="cls-3" d="M36.45,14.85h0,0Z"/><path class="cls-3" d="M36.36,14.67c.03.06.07.12.1.18h0c-.03-.06-.06-.12-.09-.18Z"/><path class="cls-3" d="M36.33,14.62s-.05-.08-.07-.11c-.03-.05-.06-.09-.08-.14.06.08.11.17.15.25Z"/><path class="cls-3" d="M35.4,13.61s.03.1.06.15c-.03-.05-.05-.1-.06-.15h0Z"/><path class="cls-2" d="M35.39,13.61h0c-.08-.05-.15-.12-.22-.19.07.07.14.13.22.19Z"/><path class="cls-3" d="M34.9,38.11c.02.1.03.2.05.31-.22-.68-.42-1.36-.54-2.05-.03-.13-.06-.27-.07-.41-.03-.2-.06-.41-.07-.61,0-.09,0-.17,0-.26,0-.06,0-.13,0-.19h.03c.07-.01.1,0,.12,0,.03.03.01.08.03.15,0,.01,0,.03.01.04.02.05.04.09.06.14s.03.09.03.14c.02.08.03.16.06.23h0s-.04-.03-.06-.05c-.04-.01-.07-.01-.09,0s-.03.05-.03.1c-.01.12.01.3.02.35.06.31.13.61.2.91.05.2.1.4.15.6h0c.05.21.09.41.13.61Z"/><path class="cls-2" d="M34.79,12.96c-.06-.08-.13-.15-.2-.22h0c.07.07.13.15.19.22Z"/><polygon class="cls-3" points="34.59 35.59 34.59 35.6 34.59 35.59 34.59 35.59"/><path class="cls-3" d="M34.58,12.72c-.1-.1-.21-.22-.32-.33-.06-.06-.12-.12-.18-.18-.3-.31-.62-.63-.89-.88.52.3,1.09.87,1.39,1.39Z"/><path class="cls-3" d="M34.26,35.07c0,.09,0,.17,0,.26-.01-.15-.02-.3-.02-.45h0c0,.06,0,.13,0,.19Z"/><path class="cls-2" d="M30.66,3.2c.4-.08.81-.13,1.2-.17-.4.04-.8.1-1.2.17Z"/><path class="cls-2" d="M30.62,3.2c-.18.03-.37.06-.55.1.18-.04.37-.08.55-.1Z"/><path class="cls-2" d="M27.55,6.71s.03.07.06.1c-.03-.03-.04-.07-.06-.1Z"/><path class="cls-2" d="M27.55,6.7h0c-.06-.11-.09-.23-.1-.35.01.12.06.24.1.35Z"/><path class="cls-2" d="M27.44,6.12c0,.08,0,.15,0,.23-.01-.08-.01-.15,0-.23Z"/><path class="cls-2" d="M26.86,7.07h0s-.09,0-.13,0c.04,0,.08,0,.13,0Z"/><path class="cls-2" d="M25.23,4.85c-.29.14-.59.28-.87.42-.02,0-.05.02-.08.03.03-.02.06-.03.08-.04.29-.15.58-.29.87-.42Z"/><path class="cls-2" d="M24.13,7.79c-.07-.04-.14-.08-.21-.12.07.03.14.08.21.12Z"/><path class="cls-2" d="M23.72,7.56c-.13-.06-.26-.13-.4-.19,0,0,0,0-.01-.01.14.08.29.13.41.2Z"/><path class="cls-2" d="M23.33,7.37s-.01,0-.02-.01h0s0,.01.01.01Z"/><path class="cls-2" d="M23.3,7.35s0,0,0,0h0c-.14-.07-.29-.14-.42-.2.15.06.29.13.42.2Z"/><path class="cls-1" d="M17.91,39.92l.12.36h-.08c-.02-.13-.01-.25-.03-.36Z"/><path class="cls-1" d="M17.95,40.28h-1.98l.89-3.28c.15.04.21.18.26.31.26.59.68,1.97.79,2.61.02.11.01.23.03.36Z"/><path class="cls-3" d="M58.56,39.52v-.03l-1.94-9.74c-.17.56-.36,1.1-.53,1.64-.08.26-.16.52-.22.79-.03.13-.07.27-.1.4h0s0,0,0,0c0,.03,0,.06-.02.09,0,.03-.01.06-.01.08-.01.06-.03.13-.03.18,0,.02,0,.03-.01.06-.04.23-.09.45-.13.7-.09.58-.19,1.19-.25,1.8-.07.6-.13,1.19-.15,1.72-.01.29,0,.59,0,.87.02.44.07.86.1,1.3.03.29.06.59.06.89h3.38l-.15-.76Z"/><path class="cls-3" d="M55.29,25.26c-.29.22-1.06,1.39-1.41,1.77-1.08,1.17-3.16,3.19-4.59,1.41-1.14-1.43-1.23-3.13-3.01-4.31-2.26-1.52-4.97-.97-7.46-.45.1-2.85-.59-5.6-1.91-8.11-.12-.23-.26-.54-.47-.7,0,.01.03.06.05.12.02.04.03.1.06.15,0,.01,0,.03.01.04,0,0,0,.01,0,.02,0,0,0,.01,0,.02,0,.01,0,.02,0,.03,0,0,0,.01,0,.01v.02s0,.01,0,.01c0,.04,0,.07-.01.07,0,0-.04-.01-.1-.07-.06-.14-.14-.28-.24-.42-.15-.22-.34-.42-.5-.64-.13-.15-.24-.31-.31-.47-.03-.05-.05-.1-.06-.15-.08-.06-.15-.13-.22-.2-.14-.14-.26-.3-.38-.46-.06-.08-.13-.15-.19-.22,0,0,0-.01-.01-.02-.1-.1-.21-.22-.32-.33-.06-.06-.12-.12-.18-.18-.3-.31-.62-.63-.89-.88-.19-.18-.39-.36-.59-.52-.6-.5-1.2-.95-1.82-1.39h0c-.15-.11-.3-.22-.45-.33-.35-.24-.7-.49-1.05-.76-.38-.29-.91-.63-1.3-1.04-.04-.04-.08-.08-.13-.13h0s-.08-.1-.11-.15c-.02-.03-.04-.06-.06-.09-.03-.03-.04-.07-.06-.1-.03-.03-.04-.07-.06-.1-.06-.12-.09-.24-.1-.36-.01-.08-.01-.15,0-.23,0-.03,0-.06,0-.09l-.58,1.03h0s-.09.01-.13.01c-.05,0-.09,0-.13,0-.16,0-.31.03-.47.06-.12.01-.23.03-.34.07-.34.08-.68.19-1,.32-.11.03-.22.08-.33.13-.11.04-.22.09-.33.13-.07-.04-.14-.08-.21-.12-.07-.04-.13-.08-.2-.11-.13-.06-.26-.13-.4-.19,1.22.87,2.35,1.84,3.11,3.16.79,1.38,1.23,3.18,1.36,4.74.05.56-.08,1.43.03,1.91.08.32.73,1.29.93,1.71,1.54,3.29,2.22,6.96,2.32,10.58,0,.33.01.72-.02,1.04,0,.1-.03.42-.16.41-.17-4.3-1.8-8.38-4.03-12-.17-.27-.85-1.11-.89-1.3-.17-.66.03-2.03-.02-2.8-.12-1.46-.5-3.18-1.33-4.37.29.7.69,1.38.81,2.14.1.57-.5-.23-.68-.37-1.84-1.41-4.18-1.18-6.31-.7l.36,4.81c-.01,2.67-.42,5.11-1.06,7.57,0,.01,0,.02,0,.03l-.82,2.47h0l-.31.95c.06-.35.12-.7.17-1.04.02-.15.05-.31.06-.47.01-.11.03-.22.04-.33,0-.02,0-.05,0-.07.01-.1.02-.2.03-.31,0-.03,0-.06,0-.08.03-.52.03-1,0-1.44,0-.13-.01-.26-.03-.39,0-.04,0-.08-.02-.13,0,.03,0,.07-.01.1-.02.1-.04.2-.07.31,0,0,0,.01,0,.03,0,.03,0,.05,0,.07h0s-.02.09-.03.13c0,.02,0,.04-.01.06-.06.26-.12.52-.2.79v.02c-.06.24-.13.49-.22.74-.03.13-.08.26-.13.4-.15.48-.33.98-.54,1.49-.02.05-.04.1-.06.15-.13.3-.26.58-.39.86-.14.3-.28.59-.43.86-.15.29-.31.57-.47.84-.13.24-.27.46-.4.67-.03.06-.08.13-.12.19l1.89,9.5h.31l.89-3.28c.15.04.21.18.26.31.26.59.68,1.97.79,2.61l.12.36h17.62c-.31-.59-.5-1.23-.7-1.87-.22-.68-.42-1.36-.54-2.05-.03-.13-.06-.27-.07-.41-.03-.2-.06-.41-.07-.61-.01-.15-.02-.3-.02-.45h.03c.06-.02.1-.01.12,0,.03.03.01.08.03.15,0,.01.01.03.02.04.02.05.03.09.05.14.01.05.03.09.03.14.03.09.04.17.07.24.65,1.64,1.55,3.2,2.51,4.69h12.15c.07-1.77.48-3.59,1.18-5.22.1-.22.25-.58.38-.77.06-.08,0-.15.2-.11,0,.26.2,1.94.4,1.94.8-1.52,1.77-2.95,2.44-4.53.88-2.04,1.34-4.23,1.66-6.42-.14-.03-.15.03-.22.08Z"/><path class="cls-3" d="M31.45,6.75s.02.05.03.08c.02.04.05.09.08.14.04.07.09.14.15.19.01.02.03.04.06.06,0,0,.01,0,.01.01,0,.01.01.01.02.01.04.03.08.06.12.06.01,0,.03,0,.05,0h.03s.09-.02.14-.06c.03-.02.06-.04.08-.08,0,0,0,0,0-.01.06-.06.12-.13.19-.21.02-.03.04-.05.06-.08.06-.07.11-.14.17-.2.28-.24.6-.46.94-.65.1-.06.22-.12.33-.17.08-.05.16-.08.24-.11.06-.03.11-.06.17-.08.13-.06.26-.1.39-.14.08-.03.16-.06.24-.08.03-.01.06-.02.1-.03.04-.01.08-.03.12-.03.15-.04.29-.07.44-.1.08-.01.16-.03.24-.03,1.07-.16,2.16-.05,3.05.45.28.15.55.36.78.61.02.01.04.03.05.06.02.01.03.03.05.06.03.02.05.05.07.08.17.2.3.42.38.65.03.08.06.17.08.26-.61.15-1.23.32-1.85.52-.61.19-1.23.41-1.8.65-.03,0-.06.03-.11.04-.05.03-.1.06-.17.08-.07.03-.15.07-.23.1-.26.13-.56.27-.73.38-.03.01-.05.03-.06.04-.05.03-.08.06-.08.08.61.39,1.16.81,1.65,1.31.24.24.47.5.68.78.22.28.41.58.59.89.02.03.04.07.06.1.06.1.11.22.17.33.06.13.12.26.18.39.03.09.08.19.13.28.05.11.1.22.16.33,0,.02.01.03.03.05.02.03.04.08.06.11.03.06.06.1.09.15-.08-.24-.13-.47-.22-.7-.09-.23-.34-.52-.26-.71,1.42,1.59,1.47,4.3,3.18,5.65,1.27,1,2.62.76,4.1,1.15-.79-2.03-2.08-4.17-2.44-6.33-.26-1.48-.1-2.17,1.46-2.47,1.62-.32,3.66-.19,4.77,1.11-.08-.13-.18-.29-.29-.45-.02-.03-.05-.08-.08-.12-.24-.36-.52-.75-.75-.96-.23-.21-.87-.29-1.19-.31-.09,0-.17-.01-.26-.01-.1,0-.22-.01-.32,0-.79-.03-1.58.03-2.36.08-.22.01-.45.03-.67.03-.1,0-.42.06-.4-.09.33-.1.65-.2.98-.29.81-.22,1.62-.39,2.44-.53.9-.17,1.8-.3,2.71-.42l.2.15c.03.19.03.4.02.61-.01.36-.06.75,0,1.05,0,.02,0,.04.01.06,0,.02.01.03.02.05.01.03.03.04.06.06,0,0,.01,0,.02.01,0,0,.02.01.03.01.01,0,.02.01.03.02h0l-.09-2.12c-1.18-.05-2.44-.5-3.55-.91-2.75-1.02-5.29-2.5-7.71-4.12l.13-.09-.08-.09c-.98-.15-2-.26-3-.17-.08,0-.15.01-.24.03-.08.01-.17.03-.25.05-.4.08-.82.22-1.15.36-.1.05-.22.11-.34.2-.04.02-.08.05-.13.08-.26.18-.52.38-.68.44h0s-.06.01-.08,0c-.07-.03-.08-.14-.04-.17,0,0,.01-.01.03-.02.04-.03.13-.06.21-.1.03-.01.06-.03.09-.06.03-.03.05-.05.07-.08,0,0,0,0,0-.01,0,0,.01-.01.01-.02,0-.01.01-.03.01-.06h0s0-.02,0-.03c0-.01,0-.03,0-.06h-.03c-.06,0-.13.01-.19.03-.06.01-.12.03-.17.05h0s-.09.04-.14.06c0,0-.01,0-.02,0h0s-.05.03-.07.04c-.06.02-.13.06-.18.1-.03.02-.08.05-.11.08-.03.03-.07.06-.1.1-.02.01-.04.03-.06.06-.08.07-.15.15-.21.24-.17.23-.3.5-.38.78-.01.02-.02.04-.02.06-.01.02-.02.05-.02.07-.02.06-.03.13-.04.2-.01.07-.02.13-.03.2-.02.3,0,.59.1.86,0,.03.02.05.03.08Z"/><path class="cls-3" d="M10.36,11.07c.34,1,.24,2.27.17,3.37l-.7-3.54c.07-.02.16-.06.28-.12.18,0,.21.16.25.29Z"/><path class="cls-2" d="M39.01,7.08s.02-.01.03-.02c.01-.03,0-.08-.04-.12h0s0,0,0,0c-.03-.03-.06-.05-.1-.08-.01,0-.03-.02-.05-.03s-.03-.02-.06-.03c-.03-.01-.06-.03-.1-.06-.05-.02-.1-.04-.15-.06-.01-.01-.03-.02-.06-.03s-.04-.01-.06-.02c-.08-.03-.16-.06-.24-.09-.04-.01-.08-.03-.11-.04-.03-.01-.07-.02-.1-.03-.06-.02-.13-.03-.17-.05s-.08-.03-.09-.03c-.06,0-.1-.01-.16-.01-.03,0-.06,0-.08,0-.03,0-.06,0-.08,0h-.13c-.06,0-.13,0-.19,0-.36,0-.74.02-1.02.09-.22.05-.5.17-.78.34-.08.05-.17.1-.25.16,0,0,0,0,0,0-.1.07-.2.15-.29.22-.1.08-.18.17-.26.26-.07.08-.14.18-.19.27-.18.34-.18.7.19,1.02.2-.13.39-.25.59-.37.33-.19.66-.36,1.01-.52.42-.19.85-.35,1.29-.47.34-.1.7-.18,1.05-.24.17-.02.34-.05.52-.06.03,0,.06-.01.09-.01Z"/><path class="cls-2" d="M55.32,35.51c-.08.6-.13,1.19-.16,1.72-.01.3,0,.59.01.87-.01-.29-.02-.58,0-.87.03-.53.08-1.12.15-1.72Z"/><path class="cls-2" d="M53.3,40.33s.01-.03.02-.04c0-.02.01-.04.02-.06-.01.02-.02.04-.03.06,0,.01,0,.03-.01.04Z"/><path class="cls-2" d="M48.35,19.9c.11-.07.22-.15.32-.24.09-.08.18-.15.27-.24.04-.03.08-.07.13-.12.27-.25.52-.54.76-.83.11-.15.22-.3.33-.45.08-.11.16-.22.23-.33.02-.03.04-.07.06-.1.03-.05.06-.1.08-.14.07-.12.13-.23.2-.35h0c.08-.16.15-.29.22-.41.27-.52.34-.8.22-1.55,0,0,0-.02,0-.03-.15-.95-.62-2.15-1.21-2.99-.08-.12-.17-.23-.26-.33h0s0-.01-.01-.02c-1.11-1.3-3.15-1.43-4.77-1.11-1.56.31-1.71.99-1.46,2.47.37,2.17,1.66,4.3,2.44,6.33-1.48-.39-2.83-.15-4.1-1.15-1.71-1.35-1.76-4.06-3.18-5.65-.08.2.17.48.26.71.09.24.14.47.22.7-.03-.05-.06-.1-.09-.15.02.06.06.1.08.15.06.16.11.34.18.55.01.03.02.05.02.08.08.29.19.61.3.94.04.13.08.25.12.38.07.19.13.37.2.56.06.19.13.38.2.56.1.29.22.56.33.81.03.07.06.13.09.19.09.19.18.36.28.5.02.03.04.07.07.1.04.06.08.13.13.18.07.09.14.17.21.23,1.23,1.13,3.16.29,4.61.95,1.02.46.65.88,1.92.2.14-.08.27-.15.4-.24.07-.05.13-.09.2-.15Z"/><path class="cls-2" d="M49.69,10.49s.01.04.02.06c0-.02,0-.04-.01-.06-.06-.31-.01-.69,0-1.05-.01.37-.06.75,0,1.05Z"/><path class="cls-2" d="M36.6,15.28s0,.01,0,.01c0,.01,0,.02,0,.03,0,.02,0,.03-.01.04.02,0,.02-.03.01-.07,0,0,0,0,0-.01Z"/><path class="cls-2" d="M35.34,13.22s-.02-.03-.03-.05h0c-.11-.15-.23-.3-.35-.46-.18-.24-.37-.49-.56-.73-.06-.08-.12-.15-.17-.22,0,0-.01,0,0-.01-.07-.08-.13-.15-.18-.22-.03-.03-.06-.07-.09-.1-.03-.03-.06-.07-.08-.1h0s-.04-.06-.07-.08c-.02-.02-.04-.05-.06-.07l-.28-.29c-.08-.07-.15-.14-.22-.21-.36-.33-.73-.65-1.1-.98-.07-.06-.14-.12-.21-.18-.22-.2-.44-.4-.63-.61-.08-.08-.15-.15-.22-.24,0-.01-.02-.02-.03-.03-.08-.08-.15-.17-.22-.26-.04-.06-.08-.11-.12-.17-.07-.09-.13-.18-.17-.28-.01,0-.02-.01-.02-.03-.01-.02-.03-.04-.03-.07-.06-.08-.1-.17-.13-.26,0-.02-.01-.04-.02-.06,0-.02-.01-.04-.02-.06-.03-.08-.06-.15-.08-.22-.03-.08-.04-.15-.06-.23-.03-.15-.04-.3-.05-.46v-.09s0-.07,0-.11v-.03c0-.15.02-.3.06-.46.04-.23.12-.46.22-.71.11-.28.26-.54.43-.79.01-.02.03-.04.03-.06.03-.04.06-.08.08-.11.06-.09.13-.18.19-.26.04-.05.08-.09.12-.14,0,0,0-.01.01-.02.13-.16.26-.31.4-.47.07-.08.14-.17.21-.25-.4.04-.8.1-1.2.17-.01,0-.03,0-.04,0-.18.03-.37.06-.55.1-1.66.32-3.32.86-4.84,1.55-.29.14-.59.28-.87.42-.02,0-.05.02-.08.03-.16.08-.45.24-.77.43-.06.03-.13.08-.2.11-.2.12-.39.24-.57.35-.12.08-.24.15-.33.21-.1.06-.18.13-.24.17-.03.02-.06.04-.07.06-.02,0-.03.02-.04.03h0s0,0,0,0c0,.01,0,.02,0,.03-.03.11.13.1.19.13.22.1.42.2.63.29.15.06.29.13.42.2,0,0,0,0,0,0h0c.14.08.29.13.41.2.07.03.13.07.2.11.07.03.14.08.21.12.11-.04.22-.09.33-.13.11-.05.22-.09.33-.13.33-.13.66-.24,1-.32.11-.03.22-.06.34-.07.15-.03.31-.05.47-.06.04,0,.08,0,.13,0,.04,0,.08,0,.13,0h0s.58-1.04.58-1.04c0,.03,0,.06,0,.09,0,.08,0,.15,0,.23.01.12.06.24.1.35h0s.03.08.06.11c.02.03.03.07.06.1.01.03.03.06.06.09.03.05.08.1.11.14h0c.04.06.08.1.13.14.39.41.93.75,1.3,1.04.36.26.7.52,1.05.76.15.11.3.22.45.33h0c.62.45,1.23.89,1.82,1.39.2.16.4.34.59.52.52.3,1.09.87,1.39,1.39,0,0,0,.01.01.02h0c.07.07.13.15.19.22.12.16.24.32.38.46.07.07.14.13.22.19,0-.05.05-.22-.03-.36,0,0,0-.01-.01-.02Z"/><path class="cls-2" d="M34.59,35.59h0s0,0,0,0c-.03-.07-.04-.15-.07-.24.02.08.03.16.06.23Z"/><path class="cls-2" d="M34.43,35.04s0,.03.01.04c.02.05.04.09.06.14-.01-.05-.03-.09-.05-.14,0-.01-.01-.03-.02-.04Z"/><path class="cls-2" d="M34.28,34.89c.07-.01.1,0,.12,0-.01-.02-.06-.03-.12,0Z"/><path class="cls-2" d="M31.78,7.23s0,0-.01-.01h0s0,.01.01.01Z"/><path class="cls-2" d="M24.62,10.44c-.39-.57-.72-1-1.35-1.34-2.35-1.25-5.75.79-8.05,1.52-.1.16.13,1.81.14,2.16.12,3.25-.48,6.76-1.59,9.81-.31.84-.67,1.76-1.12,2.55l1.12,5.64h0s.08-.12.12-.18c.13-.21.27-.43.4-.67.17-.28.32-.56.47-.84.15-.29.29-.57.43-.86.14-.29.26-.57.39-.86.02-.05.04-.1.06-.15.21-.51.39-1.01.54-1.49.05-.13.09-.26.13-.4.08-.24.15-.49.22-.74v-.02c.07-.26.13-.52.2-.79,0-.02,0-.04.01-.06,0-.03.02-.08.03-.12h0s0-.05,0-.08c0-.01,0-.02,0-.03.03-.1.05-.21.07-.31,0-.03.01-.07.01-.1.01.04.01.08.02.13.01.13.02.26.03.39.02.21.03.42.03.65,0,.03,0,.07,0,.1,0,.22,0,.45-.02.69,0,.03,0,.06,0,.08,0,.1-.01.21-.03.31,0,.03,0,.05,0,.07-.01.11-.03.22-.04.33-.01.15-.04.31-.06.47-.06.34-.11.69-.17,1.04l.31-.95h0l.82-2.47s0-.02,0-.03c.63-2.46,1.04-4.9,1.06-7.57l-.36-4.81c2.13-.48,4.47-.71,6.31.7.17.14.77.94.68.37-.13-.76-.53-1.43-.81-2.14Z"/><path d="M31.07,56.38s-.83.62-2.2.62h-6.94v-2.61h3.36c1.36,0,2.19.61,2.19.61v-4.06s-.83.61-2.19.62h-3.35v-2.62h6.94c1.36,0,2.2.61,2.2.61v-2.49l-.85-.96h-12.48s.61.83.61,2.2v9.35c0,1.36-.61,2.2-.61,2.2h14.96l-1.63-1.41v-2.04Z"/><path d="M15.78,49.96c0-2.11-.77-3.76-3.58-3.87H2.45s.61.83.62,2.19v9.37c0,1.36-.62,2.19-.62,2.19h9.75c2.82-.1,3.58-1.76,3.58-3.87,0-1.23-.67-2.68-3.03-2.96v-.09c2.36-.28,3.03-1.73,3.03-2.96ZM12.2,57h-5.55v-2.61h5.55v2.61ZM12.2,51.55h-5.55v-2.61h5.55v2.61Z"/><polygon points="29.82 44.71 25.64 44.48 2.15 43.18 2.15 44.71 25.99 44.71 29.82 44.71"/><path d="M40.88,59.83h12.72v-3.45s-.83.61-2.19.61h-7.27l6.03-4.43c2.53-1.85,3.43-2.3,3.43-4.5v-1.98h-11.75l-.97,1.1v2.35s.83-.61,2.2-.61h7.28l-6.05,4.43c-2.53,1.85-3.43,2.3-3.43,4.5v.65l-1.52,1.32h1.52Z"/><polygon points="31.2 45.19 31.83 46.35 32.18 47 32.18 47.77 32.18 48.73 32.18 58.3 33.45 58.56 34.73 61.11 35.14 61.11 35.14 47.67 31.6 45.45 31.2 45.19"/><polygon points="39.78 48.73 39.78 48.07 39.78 47 40.75 45.22 40.76 45.19 40.76 45.2 36.82 47.67 36.82 61.11 37.24 61.11 38.51 58.56 39.78 58.3 39.78 48.73"/><polygon points="35.98 44.14 31.44 43.52 35.98 47.18 40.52 43.52 35.98 44.14"/><polygon points="2.15 62.93 32.7 61.4 2.15 61.4 2.15 62.93"/><polygon points="69.81 62.93 69.81 61.4 38.79 61.4 69.81 62.93"/><polygon points="46.33 44.48 42.15 44.71 45.97 44.71 69.81 44.71 69.81 43.18 46.33 44.48"/><path d="M65.3,46.1h-5.55c-2.82.1-3.58,1.76-3.59,3.87v7.69c0,1.35-.61,2.18-.61,2.18h4.81s-.62-.83-.62-2.2v-3.25h5.55v3.25c0,1.36-.61,2.2-.61,2.2h4.81s-.61-.83-.61-2.2v-7.67c0-2.11-.77-3.76-3.59-3.87ZM65.3,49.96v1.58h-5.55v-2.61h5.55v1.03Z"/></svg>