<?xml version="1.0" encoding="UTF-8"?>
<svg id="Talking_Images" data-name="Talking Images" xmlns="http://www.w3.org/2000/svg" viewBox="0 0 560.31 560.31">
  <defs>
    <style>
      .cls-1 {
        fill: #a4865b;
      }

      .cls-2 {
        fill: #fff;
      }
    </style>
  </defs>
  <circle class="cls-1" cx="280.15" cy="280.15" r="264.32"/>
  <g>
    <path class="cls-2" d="M291.6,112.27l-2.95-11.81-110.8,65.01,9.96,34.76.06.2,3.28,11.44c.71,2.46,1.51,4.89,2.41,7.28l1.99,6.55,12.4,18.03v-18.58l-.06-2.09v-.09s-.1-3.13-.1-3.13l84.38-31.17,8.51-3.47-.2-.21.44.11,3.47.84,2.53.61,5.9-1.76,2.27,1.38.04.02,1.14.69,6.16,3.72,24.87,15.02,28.68-35.27,6.47-3.65-90.85-54.43Z"/>
    <path class="cls-2" d="M310.66,196.41v4.32l-4.86,6.34-4.4,5.74-.35,2.63-1.01,7.78-8.1,62.01.28-4.16.38-36.19.29-28.17-.05.09.11-5.01v-1.07s.02-.01.02-.01v-.57s3.63-4.63,3.63-4.63l.67-.85,1.95-2.49.28-.39,1.31-1.79.57-.78.44-9.24-72.82,32.41,4.14,29.64,11.59,82.97,1.45,2.06,32.24,45.7.02.03.65.91,5.8,8.23,2.67-40.33.33-5.03,17.61-9.45s1.05-5.51,6.03-43.83c3.35-25.7,11.3-52.47,16.18-67.31,1.91-5.81,3.34-9.79,3.84-11.16l-.49-.34-20.4-18.06Z"/>
  </g>
  <g>
    <g>
      <path class="cls-2" d="M190.24,458.48v-19.77h-5.88v-9.61h22.32v9.61h-5.88v19.77h-10.56Z"/>
      <path class="cls-2" d="M204.53,458.48l10.48-29.38h11.76l10.27,29.38h-11.36l-.94-3.69h-7.97l-.9,3.69h-11.34ZM218.54,447.8h4.39l-.9-3.33c-.44-1.69-.74-2.98-.9-3.89-.16-.91-.26-1.77-.3-2.57h-.18c-.04.8-.14,1.66-.3,2.57-.16.91-.46,2.21-.9,3.89l-.9,3.33Z"/>
      <path class="cls-2" d="M238.66,458.48v-29.38h10.58v19.85h10.27v9.53h-20.85Z"/>
      <path class="cls-2" d="M262.75,458.48v-29.38h10.35v12.52l6.7-12.52h11.96l-8.87,14.47,10.11,14.91h-12.78l-7.12-12.28v12.28h-10.35Z"/>
      <path class="cls-2" d="M294.35,458.48v-29.38h10.74v29.38h-10.74Z"/>
      <path class="cls-2" d="M310.79,458.48v-29.38h10.35l9.13,15.37c-.12-.68-.2-1.44-.25-2.27-.05-.83-.07-1.91-.07-3.25v-9.85h10.17v29.38h-10.44l-9.03-15.25c.11.66.19,1.36.24,2.12.05.76.08,1.6.08,2.54v10.6h-10.19Z"/>
      <path class="cls-2" d="M364.22,447.96h-4.6v-6.9h16.23c.03.6.05,1.05.06,1.34.01.29.02.56.02.78,0,1.69-.16,3.22-.48,4.62-.32,1.39-.79,2.62-1.4,3.69-1.5,2.52-3.43,4.44-5.8,5.77-2.37,1.33-5.06,2-8.07,2-2.22,0-4.28-.37-6.19-1.11-1.91-.74-3.6-1.84-5.07-3.28-1.46-1.44-2.56-3.1-3.31-4.96-.75-1.86-1.12-3.88-1.12-6.06s.38-4.22,1.13-6.09,1.86-3.51,3.3-4.93c1.46-1.43,3.14-2.52,5.06-3.27,1.91-.75,3.98-1.12,6.2-1.12,3.01,0,5.69.66,8.03,1.98,2.34,1.32,4.25,3.25,5.74,5.79l-9.41,3.49c-.49-.82-1.09-1.42-1.79-1.83-.7-.4-1.49-.6-2.39-.6-1.56,0-2.81.6-3.74,1.79-.93,1.19-1.39,2.79-1.39,4.8s.47,3.68,1.4,4.83,2.26,1.72,3.97,1.72c1.02,0,1.84-.21,2.48-.64.64-.43,1.01-1.02,1.13-1.79Z"/>
    </g>
    <g>
      <path class="cls-2" d="M214.48,477.84v-9.91h3.62v9.91h-3.62Z"/>
      <path class="cls-2" d="M241.83,477.84l-.43-3.93c-.03-.3-.05-.6-.08-.9-.03-.3-.05-.6-.07-.9-.04.28-.1.59-.17.9-.07.32-.17.66-.27,1.02l-1.14,3.81h-2.12l-1.14-3.81c-.11-.36-.21-.7-.28-1.02-.07-.32-.13-.62-.17-.9-.02.31-.05.61-.07.91-.02.3-.05.6-.08.9l-.43,3.93h-3.49l1.69-9.91h3.68l.7,2.45c.02.08.06.19.1.35.3,1.03.48,1.88.55,2.55h.06c.05-.42.14-.87.24-1.34.11-.47.25-1.01.43-1.6l.74-2.41h3.67l1.57,9.91h-3.49Z"/>
      <path class="cls-2" d="M257.74,477.84l3.53-9.91h3.97l3.46,9.91h-3.83l-.32-1.25h-2.69l-.3,1.25h-3.82ZM262.47,474.24h1.48l-.3-1.12c-.15-.57-.25-1.01-.3-1.31s-.09-.6-.1-.87h-.06c-.01.27-.05.56-.1.87s-.16.74-.3,1.31l-.3,1.12Z"/>
      <path class="cls-2" d="M288.07,474.29h-1.55v-2.33h5.48c0,.2.02.35.02.45,0,.1,0,.19,0,.26,0,.57-.05,1.09-.16,1.56-.11.47-.27.88-.47,1.25-.51.85-1.16,1.5-1.96,1.95-.8.45-1.71.67-2.72.67-.75,0-1.45-.13-2.09-.38-.64-.25-1.21-.62-1.71-1.11-.49-.49-.86-1.04-1.12-1.67-.25-.63-.38-1.31-.38-2.04s.13-1.42.38-2.05c.25-.63.63-1.18,1.11-1.66.49-.48,1.06-.85,1.71-1.1.65-.25,1.34-.38,2.09-.38,1.02,0,1.92.22,2.71.67.79.44,1.44,1.1,1.94,1.95l-3.17,1.18c-.17-.28-.37-.48-.6-.62-.23-.14-.5-.2-.81-.2-.53,0-.95.2-1.26.6s-.47.94-.47,1.62.16,1.24.47,1.63.76.58,1.34.58c.34,0,.62-.07.84-.22s.34-.35.38-.6Z"/>
      <path class="cls-2" d="M306.07,477.84v-9.91h6.63v2.69h-3.13v.95h2.84v2.54h-2.84v1.04h3.21v2.69h-6.71Z"/>
      <path class="cls-2" d="M326.08,476.99l1.14-2.77c.51.36.96.62,1.36.78.4.16.77.25,1.12.25.24,0,.44-.05.58-.14.14-.09.21-.22.21-.38,0-.28-.35-.48-1.05-.63-.23-.05-.4-.09-.53-.12-.74-.18-1.31-.5-1.7-.96s-.59-1.03-.59-1.72c0-1.06.38-1.93,1.14-2.6.76-.67,1.76-1,3-1,.57,0,1.13.07,1.68.22.55.15,1.11.37,1.67.68l-1.08,2.59c-.34-.25-.69-.45-1.03-.58-.35-.13-.68-.2-1.01-.2-.25,0-.44.04-.58.13-.13.08-.2.2-.2.35,0,.28.49.53,1.48.74.16.04.28.06.37.08.68.15,1.22.47,1.61.94.39.47.59,1.05.59,1.72,0,1.1-.4,1.99-1.19,2.69-.79.69-1.82,1.04-3.09,1.04-.65,0-1.3-.09-1.95-.28-.65-.18-1.3-.46-1.95-.83Z"/>
    </g>
  </g>
</svg>